<?xml version="1.0" encoding="iso-8859-1"?>
<!-- Uploaded to: SVG Repo, www.svgrepo.com, Generator: SVG Repo Mixer Tools -->
<svg height="800px" width="800px" version="1.1" id="Layer_1" xmlns="http://www.w3.org/2000/svg" xmlns:xlink="http://www.w3.org/1999/xlink" 
	 viewBox="0 0 512 512" xml:space="preserve">
<g>
	<path style="fill:#FEFAC8;" d="M126.759,156.308c12.681-3.259,25.975-4.994,39.676-4.994c13.7,0,26.991,1.739,39.671,5
		l46.005-55.477c2.421-2.919,2.646-7.072,0.552-10.233l-28.193-42.595c-1.603-2.417-4.315-3.872-7.223-3.872H115.624
		c-2.907,0-5.623,1.456-7.221,3.872L80.205,90.605c-2.092,3.162-1.867,7.313,0.554,10.233L126.759,156.308z"/>
	<polygon style="fill:#FEFAC8;" points="200.766,95.282 200.339,95.282 200.624,95.71 	"/>
	<path style="fill:#FEFAC8;" d="M132.316,95.924l18.54,56.152c5.126-0.499,10.322-0.761,15.578-0.761
		c5.257,0,10.454,0.257,15.58,0.757l18.539-56.147h-68.237V95.924z"/>
	<polygon style="fill:#FEFAC8;" points="132.53,95.282 132.104,95.282 132.245,95.71 	"/>
	<path style="fill:#FEFAC8;" d="M252.663,90.605l-28.193-42.595c-1.603-2.417-4.315-3.872-7.223-3.872H115.625
		c-2.907,0-5.623,1.456-7.221,3.872L80.205,90.605c-1.067,1.613-1.528,3.485-1.404,5.32h175.267
		C254.191,94.089,253.73,92.218,252.663,90.605z"/>
</g>
<g>
	<path style="fill:#FDF276;" d="M111.693,45.089c-1.31,0.667-2.453,1.656-3.288,2.919l-28.2,42.596
		c-1.067,1.612-1.528,3.484-1.404,5.32h66.545L111.693,45.089z"/>
	<path style="fill:#FDF276;" d="M187.523,95.924h66.547c0.122-1.835-0.338-3.706-1.409-5.32l-28.197-42.596
		c-0.836-1.262-1.978-2.253-3.29-2.919L187.523,95.924z"/>
</g>
<path style="opacity:0.1;enable-background:new    ;" d="M126.759,156.308c9.416-2.42,19.172-3.987,29.179-4.639l-42.152-50.831
	c-2.421-2.919-2.646-7.072-0.554-10.233l28.198-42.595c1.599-2.417,4.314-3.872,7.221-3.872h-33.026
	c-2.907,0-5.623,1.456-7.221,3.872L80.205,90.605c-2.092,3.162-1.867,7.313,0.554,10.233L126.759,156.308z"/>
<polygon style="fill:#FEFAC8;" points="166.384,44.136 132.104,95.924 200.766,95.924 166.484,44.136 "/>
<path style="fill:#EFBA50;" d="M223.371,410.49c-16.832,9.497-36.26,14.927-56.936,14.927c-63.998,0-116.063-51.96-116.063-115.828
	c0-63.864,52.065-115.828,116.063-115.828c20.676,0,40.104,5.43,56.936,14.928c0-0.001,0.001-0.001,0.001-0.001
	c0.01,0.005,0.02,0.011,0.029,0.018c1.527,0.863,7.581,4.658,9.015,5.651c0.029,0.02,0.059,0.041,0.088,0.061
	c30.187,20.937,49.992,55.788,49.992,95.171c0,27.92-9.95,53.564-26.497,73.587c9.076,10.982,20.137,20.266,32.63,27.314
	c22.736-27.392,36.404-62.553,36.404-100.901s-13.668-73.509-36.404-100.9c-0.003,0.001-0.006,0.003-0.009,0.004
	c-9.426-11.355-20.414-21.368-32.631-29.724c0.003-0.002,0.007-0.005,0.012-0.007c-25.487-17.437-56.329-27.647-89.566-27.647
	c-87.593,0-158.599,70.862-158.599,158.274c0,87.413,71.006,158.276,158.598,158.276c33.236,0,64.078-10.21,89.564-27.647
	C243.784,431.86,232.796,421.845,223.371,410.49z"/>
<g style="opacity:0.1;">
	<path d="M29.711,309.589c0-83.743,65.172-152.284,147.661-157.892c-3.615-0.246-7.26-0.381-10.937-0.381
		c-87.592,0-158.598,70.862-158.598,158.274c0,87.413,71.006,158.276,158.598,158.276c3.677,0,7.322-0.136,10.937-0.381
		C94.883,461.875,29.711,393.334,29.711,309.589z"/>
</g>
<g style="opacity:0.1;">
	<path d="M208.388,309.589c0-34.073,10.797-65.625,29.152-91.452c-4.476-3.476-9.203-6.648-14.169-9.449
		c-22.736,27.392-36.404,62.552-36.404,100.9c0,87.413,71.005,158.276,158.597,158.276c3.601,0,7.169-0.132,10.71-0.368
		C273.679,461.999,208.388,393.41,208.388,309.589z"/>
</g>
<path style="fill:#A87B2C;" d="M345.564,151.315c-33.241,0-64.087,10.212-89.576,27.655c12.217,8.356,23.205,18.369,32.631,29.724
	c16.834-9.501,36.264-14.933,56.945-14.933c63.997,0,116.061,51.963,116.061,115.828c0,63.867-52.064,115.828-116.061,115.828
	s-116.063-51.96-116.063-115.828c0-27.914,9.947-53.553,26.489-73.574c-9.075-10.982-20.127-20.278-32.619-27.325
	c-22.736,27.392-36.404,62.552-36.404,100.9c0,87.413,71.005,158.276,158.597,158.276c87.593,0,158.599-70.862,158.599-158.276
	C504.163,222.177,433.157,151.315,345.564,151.315z"/>
<path d="M433.599,168.593c-3.673-2.288-8.505-1.167-10.796,2.506c-2.288,3.674-1.167,8.507,2.506,10.796
	c44.47,27.712,71.018,75.448,71.018,127.695c0,82.952-67.632,150.439-150.762,150.439s-150.76-67.487-150.76-150.439
	c0-32.712,10.759-64.632,30.42-90.621c7.579,4.914,14.508,10.745,20.623,17.338c-15.627,21.162-24.184,46.925-24.184,73.283
	c0,68.189,55.581,123.665,123.9,123.665c68.318,0,123.898-55.476,123.898-123.665s-55.58-123.665-123.898-123.665
	c-19.144,0-38.065,4.471-55.123,12.953c-6.34-7.048-13.263-13.513-20.659-19.356c22.95-13.356,48.927-20.37,75.78-20.37
	c19.322,0,38.134,3.594,55.913,10.683c4.02,1.603,8.579-0.356,10.181-4.377c1.603-4.021-0.357-8.579-4.377-10.183
	c-19.633-7.828-40.397-11.797-61.717-11.797c-32.009,0-62.892,9.044-89.666,26.175c-11.31-7.205-23.488-13.049-36.262-17.379
	l38.507-46.434c4.658-5.617,5.081-13.479,1.054-19.562l-28.198-42.602c-3.064-4.621-8.206-7.378-13.754-7.378H115.623
	c-5.555,0-10.699,2.761-13.756,7.383L73.671,86.28c-4.026,6.082-3.601,13.943,1.056,19.56l38.445,46.36
	C47.44,174.418,0,236.578,0,309.589c0,91.595,74.662,166.113,166.434,166.113c32.947,0,63.682-9.612,89.556-26.163
	c25.876,16.555,56.622,26.163,89.574,26.163c91.772,0,166.436-74.518,166.436-166.113C512,251.894,482.691,199.185,433.599,168.593z
	 M255.991,370.133c-11.768-17.279-18.652-38.124-18.652-60.543c0-21.598,6.581-42.743,18.673-60.537
	c11.766,17.278,18.648,38.12,18.648,60.537C274.659,332.013,267.762,352.853,255.991,370.133z M203.134,147.619
	c-11.903-2.708-24.198-4.141-36.7-4.141c-3.379,0-6.731,0.113-10.061,0.312l-13.216-40.029h46.555l-4.159,12.597
	c-1.357,4.11,0.875,8.542,4.984,9.899c0.816,0.269,1.644,0.397,2.459,0.397c3.289,0,6.353-2.088,7.44-5.381l5.782-17.511h33.287
	L203.134,147.619z M221.855,58.259l19.743,29.829h-36.623l-1.434-2.166L221.855,58.259z M207.219,51.973l-13.075,19.751
	l-13.075-19.751H207.219z M186.18,88.087h-39.49l19.744-29.828L186.18,88.087z M151.8,51.973l-13.075,19.752l-13.076-19.752H151.8z
	 M111.015,58.261l18.311,27.662l-1.433,2.165H91.27L111.015,58.261z M93.364,103.761h33.286l13.784,41.749
	c-3.622,0.569-7.205,1.257-10.746,2.056L93.364,103.761z M166.434,460.028c-83.13,0-150.761-67.487-150.761-150.439
	c0-82.951,67.631-150.438,150.761-150.438c58.684,0,112.467,34.382,137.02,87.595c1.812,3.93,6.468,5.645,10.399,3.833
	c3.93-1.813,5.646-6.469,3.832-10.399c-4.74-10.272-10.484-19.892-17.054-28.801c14.042-6.411,29.403-9.78,44.934-9.78
	c59.675,0,108.224,48.445,108.224,107.991S405.24,417.581,345.564,417.581c-16.045,0-31.284-3.507-44.993-9.785
	c20.289-27.528,32.299-61.489,32.299-98.205c0-14.61-1.902-29.105-5.652-43.081c-1.122-4.18-5.419-6.658-9.601-5.538
	c-4.18,1.122-6.659,5.42-5.538,9.601c3.396,12.652,5.117,25.78,5.117,39.019c0,33.986-11.366,65.367-30.488,90.582
	c-7.551-4.902-14.452-10.717-20.549-17.288c15.184-20.525,24.174-45.88,24.174-73.294c0-68.189-55.58-123.665-123.898-123.665
	c-68.319,0-123.9,55.476-123.9,123.665c0,34.929,14.959,68.416,41.042,91.872c3.218,2.893,8.173,2.631,11.068-0.586
	c2.893-3.218,2.631-8.173-0.587-11.068c-22.782-20.488-35.848-49.727-35.848-80.218c0-59.547,48.55-107.991,108.226-107.991
	c16.019,0,31.231,3.499,44.921,9.76c-20.839,28.363-32.226,62.876-32.226,98.231c0,36.712,12.008,70.67,32.293,98.194
	c-13.709,6.281-28.943,9.797-44.989,9.797c-16.476,0-32.302-3.614-47.038-10.743c-3.897-1.886-8.583-0.255-10.468,3.642
	c-1.885,3.895-0.254,8.582,3.641,10.467c16.882,8.166,35.005,12.307,53.863,12.307c19.81,0,38.546-4.67,55.17-12.957
	c6.282,6.999,13.143,13.471,20.517,19.326C219.86,452.576,194.009,460.028,166.434,460.028z"/>
</svg>